<svg width="50" height="30" viewBox="0 0 50 30" fill="none" xmlns="http://www.w3.org/2000/svg">
<path d="M50 28.725C49.2723 29.0002 48.469 28.9996 47.7417 28.7233C47.0145 28.447 46.4134 27.914 46.0521 27.225L38.8646 17.2854L37.8229 15.8958L29.4834 27.2375C29.1437 27.8976 28.5753 28.4114 27.8844 28.6829C27.1935 28.9544 26.4273 28.9649 25.7292 28.7125L36.475 14.2958L26.4792 1.27292C27.1979 1.01391 27.984 1.01048 28.7049 1.2632C29.4259 1.51592 30.0378 2.00936 30.4375 2.66042L37.8875 12.7229L45.3792 2.70209C45.7214 2.05373 46.29 1.55373 46.9768 1.29715C47.6635 1.04057 48.4207 1.04529 49.1042 1.31042L45.225 6.45834L39.9709 13.2979C39.8249 13.4281 39.7082 13.5876 39.6282 13.7661C39.5483 13.9445 39.507 14.1378 39.507 14.3333C39.507 14.5289 39.5483 14.7222 39.6282 14.9006C39.7082 15.0791 39.8249 15.2386 39.9709 15.3688L49.9792 28.7271L50 28.725ZM0.00419166 14.1167L0.879192 9.79376C3.28336 1.24584 13.0834 -2.31041 19.825 2.98126C23.7729 6.08334 24.7584 10.475 24.5646 15.425H2.32503C1.96461 24.2646 8.34377 29.6021 16.5 26.875C17.8222 26.3991 19.0057 25.6026 19.9445 24.5569C20.8833 23.5112 21.548 22.249 21.8792 20.8833C22.3104 19.4958 23.0209 19.2583 24.325 19.6583C24.1077 21.3508 23.5094 22.972 22.5752 24.3998C21.6409 25.8277 20.3951 27.0252 18.9313 27.9021C16.5134 29.2247 13.7392 29.7488 11.0055 29.3997C8.27173 29.0506 5.71836 27.8461 3.71044 25.9583C1.72509 23.7237 0.525184 20.901 0.293775 17.9208C0.293775 17.4313 0.127108 16.9729 0.0146083 16.5333C0.00446672 15.7285 -0.000394494 14.9236 2.49922e-05 14.1188L0.00419166 14.1167ZM2.35211 13.5208H22.4646C22.3396 7.11251 18.2959 2.56667 12.9021 2.52501C6.89794 2.44167 2.60211 6.88751 2.33752 13.4917L2.35211 13.5208Z" fill="white"/>
</svg>
