<svg width="40" height="50" viewBox="0 0 40 50" fill="none" xmlns="http://www.w3.org/2000/svg">
<g clip-path="url(#clip0_505_907)">
<path d="M0 40.3132L0.331719 39.8898L16.0198 12.7511L16.053 12.4638L9.1375 0.620899C8.55781 -0.371124 6.92656 -0.120269 6.73656 0.990272L0 40.3132Z" fill="#FFC24A"/>
<path d="M21.0946 21.4217L26.2438 16.614L21.093 7.6496C20.6041 6.80103 19.239 6.79846 18.7552 7.6496L16.0032 12.4341V12.8415L21.0944 21.4217H21.0946Z" fill="#F4BD62"/>
<path d="M0 40.3131L0.150313 40.1752L0.696563 39.9729L20.7711 21.7393L21.0255 21.1081L16.0177 12.4081L0 40.3131Z" fill="#F6820C"/>
<path d="M21.7377 49.5086L39.9056 40.2712L34.7175 11.1408C34.5552 10.2294 33.3287 9.86919 32.6131 10.5226L0 40.3131L18.0638 49.5079C18.6252 49.7937 19.2575 49.9438 19.9006 49.9439C20.5437 49.9441 21.1761 49.7942 21.7377 49.5086" fill="#FDE068"/>
<path d="M39.7429 40.1937L34.5942 11.2846C34.4332 10.3801 33.4132 10.0058 32.7031 10.6544L0.20166 40.2564L18.0671 49.3601C18.6243 49.6437 19.2518 49.7927 19.89 49.7929C20.5281 49.793 21.1557 49.6443 21.7131 49.361L39.7431 40.1936L39.7429 40.1937Z" fill="#FCCA3F"/>
<path d="M21.7376 49.2364C21.176 49.522 20.5436 49.6718 19.9006 49.6717C19.2576 49.6716 18.6253 49.5215 18.0638 49.2357L0.145557 40.173L0.000244141 40.3131L18.0638 49.5079C18.6253 49.7937 19.2576 49.9438 19.9007 49.9439C20.5437 49.9441 21.1761 49.7942 21.7377 49.5086L39.9057 40.2712L39.8612 40.0216L21.7377 49.2366L21.7376 49.2364Z" fill="#EEAB37"/>
</g>
<defs>
<clipPath id="clip0_505_907">
<rect width="40" height="50" fill="white"/>
</clipPath>
</defs>
</svg>
