<svg width="65" height="64" viewBox="0 0 65 64" fill="none" xmlns="http://www.w3.org/2000/svg">
<path fill-rule="evenodd" clip-rule="evenodd" d="M32.3572 0.857178C14.5983 0.857178 0.214355 15.2411 0.214355 33C0.214355 47.2233 9.41525 59.2366 22.192 63.4956C23.7992 63.7768 24.4019 62.8125 24.4019 61.9688C24.4019 61.2054 24.3617 58.6741 24.3617 55.9822C16.2858 57.4688 14.1965 54.0134 13.5536 52.2054C13.192 51.2813 11.6251 48.4286 10.259 47.6652C9.134 47.0625 7.52686 45.5759 10.2188 45.5358C12.7501 45.4956 14.5581 47.8661 15.1608 48.8304C18.0536 53.692 22.6742 52.3259 24.5224 51.4822C24.8036 49.3929 25.6474 47.9866 26.5715 47.1831C19.4197 46.3795 11.9465 43.6072 11.9465 31.3125C11.9465 27.817 13.192 24.9241 15.2411 22.6741C14.9197 21.8706 13.7947 18.5759 15.5626 14.1563C15.5626 14.1563 18.2545 13.3125 24.4019 17.4509C26.9733 16.7277 29.7054 16.3661 32.4376 16.3661C35.1697 16.3661 37.9019 16.7277 40.4733 17.4509C46.6206 13.2724 49.3126 14.1563 49.3126 14.1563C51.0804 18.5759 49.9554 21.8706 49.634 22.6741C51.6831 24.9241 52.9286 27.7768 52.9286 31.3125C52.9286 43.6474 45.4152 46.3795 38.2635 47.1831C39.4286 48.1875 40.4331 50.1161 40.4331 53.1295C40.4331 57.4286 40.3929 60.884 40.3929 61.9688C40.3929 62.8125 40.9956 63.817 42.6027 63.4956C48.9836 61.3413 54.5282 57.2403 58.4563 51.7698C62.3844 46.2993 64.4981 39.7347 64.5001 33C64.5001 15.2411 50.1161 0.857178 32.3572 0.857178Z" fill="black"/>
</svg>
