<svg width="50" height="50" viewBox="0 0 50 50" fill="none" xmlns="http://www.w3.org/2000/svg">
<g clip-path="url(#clip0)">
<path d="M11.3637 49.7539V24.1296L5.37246 16.8593L0 12.8249V45.2319C0 47.734 1.52832 49.7539 3.40918 49.7539H11.3637Z" fill="#4285F4"/>
<path d="M38.6364 49.7539H46.5908C48.4774 49.7539 50 47.7264 50 45.2319V12.8251L43.9149 17.4461L38.6364 24.1295V49.7539Z" fill="#34A853"/>
<path d="M11.3636 24.1295L10.5484 14.1174L11.3636 4.53473L25 18.1005L38.6363 4.53473L39.5484 13.6L38.6363 24.1295L25 37.6953L11.3636 24.1295Z" fill="#EA4335"/>
<path d="M38.6364 4.53494V24.1298L50 12.8251V6.79582C50 1.20385 45.1875 -1.98397 41.8184 1.36966L38.6364 4.53494Z" fill="#FBBC04"/>
<path d="M0 12.8248L5.22637 18.0243L11.3637 24.1295V4.53463L8.18164 1.36935C4.80664 -1.98454 0 1.20354 0 6.79525V12.8245V12.8248Z" fill="#C5221F"/>
</g>
<defs>
<clipPath id="clip0">
<rect width="50" height="50" fill="white"/>
</clipPath>
</defs>
</svg>
