<svg width="44" height="50" viewBox="0 0 44 50" fill="none" xmlns="http://www.w3.org/2000/svg">
<path d="M22.0001 0L0.350098 12.5V37.5L22.0001 50L43.6501 37.5V12.5L22.0001 0ZM19.7647 3.01042H19.7668C20.4117 3.48649 21.1922 3.74337 21.9938 3.74337C22.7955 3.74337 23.576 3.48649 24.2209 3.01042L39.9168 12.0729C39.8852 12.3519 39.8852 12.6335 39.9168 12.9125L24.2188 21.975C23.5741 21.4994 22.794 21.2428 21.9928 21.2428C21.1916 21.2428 20.4115 21.4994 19.7668 21.975L4.06676 12.9125C4.09812 12.6342 4.09812 12.3533 4.06676 12.075L19.7647 3.01042ZM41.4251 15.4167C41.6522 15.5833 41.8959 15.7229 42.1522 15.8354V33.9604C41.4173 34.281 40.8044 34.8286 40.4036 35.523C40.0028 36.2174 39.8351 37.022 39.9251 37.8187L24.2272 46.8812C24.0011 46.7156 23.7573 46.5759 23.5001 46.4646L23.4813 28.4375C24.2163 28.1174 24.8293 27.5702 25.2305 26.8762C25.6317 26.1822 25.7999 25.3779 25.7105 24.5812L41.4251 15.4167ZM2.5751 15.5167L18.273 24.5792C18.183 25.3759 18.3507 26.1805 18.7515 26.8749C19.1523 27.5693 19.7652 28.117 20.5001 28.4375V46.5625C20.2418 46.675 20.0001 46.8167 19.773 46.9833L4.0751 37.9208C4.16512 37.1241 3.99742 36.3195 3.5966 35.6251C3.19578 34.9307 2.58294 34.383 1.84801 34.0625V15.9375C2.10571 15.8243 2.35022 15.6831 2.57718 15.5167H2.5751Z" fill="#EFEFEF"/>
</svg>
