<svg width="50" height="50" viewBox="0 0 50 50" fill="none" xmlns="http://www.w3.org/2000/svg">
<path d="M0 0H50V50H0V0Z" fill="#F7DF1E"/>
<path d="M13.1469 41.7836L16.973 39.468C17.7113 40.7768 18.3828 41.8842 19.9935 41.8842C21.5375 41.8842 22.5111 41.2803 22.5111 38.9311V22.9549H27.2098V38.9975C27.2098 43.8641 24.357 46.0793 20.1949 46.0793C16.4361 46.0793 14.2543 44.1326 13.1467 41.7832" fill="black"/>
<path d="M29.7619 41.2801L33.5877 39.0651C34.5949 40.7098 35.9039 41.918 38.2195 41.918C40.1666 41.918 41.408 40.9446 41.408 39.602C41.408 37.991 40.1326 37.4203 37.9845 36.4809L36.8101 35.977C33.4201 34.5342 31.1715 32.7217 31.1715 28.8955C31.1715 25.3713 33.8564 22.6862 38.0519 22.6862C41.039 22.6862 43.1871 23.7268 44.7308 26.4453L41.0722 28.7949C40.2666 27.3518 39.3943 26.7813 38.0517 26.7813C36.6756 26.7813 35.8029 27.6539 35.8029 28.7949C35.8029 30.2045 36.6756 30.7754 38.6892 31.6481L39.8638 32.1514C43.858 33.8633 46.1066 35.6084 46.1066 39.535C46.1066 43.7643 42.784 46.0799 38.3201 46.0799C33.957 46.0799 31.1377 43.9991 29.7617 41.2803" fill="black"/>
</svg>
