<svg width="50" height="50" viewBox="0 0 50 50" fill="none" xmlns="http://www.w3.org/2000/svg">
<path d="M42.6013 42.6024H35.1929V31.0003C35.1929 28.2337 35.1435 24.6722 31.3398 24.6722C27.4812 24.6722 26.8908 27.6866 26.8908 30.7989V42.6017H19.4826V18.7431H26.5945V22.0036H26.6941C27.4058 20.7866 28.4343 19.7855 29.6701 19.1068C30.9058 18.4281 32.3024 18.0972 33.7113 18.1495C41.2201 18.1495 42.6045 23.0886 42.6045 29.514L42.6013 42.6024ZM11.1232 15.4819C8.7488 15.4823 6.8236 13.5577 6.82321 11.1833C6.82282 8.80889 8.74724 6.88369 11.1216 6.8833C13.4961 6.88272 15.4213 8.80733 15.4216 11.1817C15.4219 12.322 14.9691 13.4156 14.163 14.222C13.3569 15.0285 12.2635 15.4817 11.1232 15.4819ZM14.8275 42.6026H7.4113V18.7431H14.8273V42.6024L14.8275 42.6026ZM46.2947 0.00302869H3.68864C1.67497 -0.0196276 0.0236023 1.59346 -0.00100708 3.60713V46.3909C0.022821 48.4056 1.67399 50.0202 3.68845 49.9991H46.2947C48.3135 50.0241 49.9711 48.4095 49.999 46.3909V3.60381C49.9703 1.58623 48.3125 -0.0266588 46.2947 -0.000291623" fill="#0A66C2"/>
</svg>
