<svg width="66" height="66" viewBox="0 0 66 66" fill="none" xmlns="http://www.w3.org/2000/svg">
<path d="M55.6304 55.6318H46.1053V40.7148C46.1053 37.1577 46.0418 32.5786 41.1513 32.5786C36.1903 32.5786 35.4311 36.4543 35.4311 40.4559V55.6308H25.9063V24.9555H35.0502V29.1476H35.1783C36.0933 27.5829 37.4157 26.2957 39.0045 25.4231C40.5933 24.5505 42.389 24.1251 44.2004 24.1923C53.8545 24.1923 55.6344 30.5425 55.6344 38.8038L55.6304 55.6318V55.6318ZM15.1585 20.7626C12.1057 20.7631 9.63046 18.2886 9.62995 15.2358C9.62945 12.1829 12.1037 9.70769 15.1565 9.70719C18.2093 9.70644 20.6846 12.1809 20.6851 15.2338C20.6854 16.6998 20.1033 18.1059 19.0668 19.1427C18.0304 20.1796 16.6246 20.7622 15.1585 20.7626V20.7626ZM19.9212 55.6321H10.3861V24.9555H19.9209V55.6318L19.9212 55.6321ZM60.379 0.861124H5.59979C3.01078 0.831995 0.887598 2.90596 0.855957 5.49497V60.5027C0.886593 63.093 3.00953 65.1689 5.59954 65.1418H60.379C62.9746 65.174 65.1058 63.098 65.1417 60.5027V5.4907C65.1048 2.89667 62.9733 0.822954 60.379 0.856855" fill="#0A66C2"/>
</svg>
