<svg width="50" height="50" viewBox="0 0 50 50" fill="none" xmlns="http://www.w3.org/2000/svg">
<path d="M43.75 18.0209C43.75 39.375 25 45.8334 25 45.8334C25 45.8334 6.25 39.375 6.25 18.0209C6.25 15.4167 6.45833 13.2292 6.66667 11.4584C6.97917 8.85419 8.75 6.77085 11.25 6.14585C14.4792 5.20835 19.5833 4.16669 25 4.16669C30.4167 4.16669 35.5208 5.20835 38.8542 6.14585C41.3542 6.77085 43.125 8.95835 43.4375 11.4584C43.5417 13.2292 43.75 15.5209 43.75 18.0209Z" fill="#5D4037"/>
<path d="M25 7.29169C30.1042 7.29169 34.8958 8.33335 38.0208 9.16669C39.2708 9.47919 40.1042 10.5209 40.3125 11.875C40.5208 13.8542 40.625 15.9375 40.625 18.0209C40.625 34.2709 28.6458 40.8334 25 42.3959C21.3542 40.7292 9.375 34.1667 9.375 18.0209C9.375 15.9375 9.47917 13.8542 9.6875 11.875C9.79167 10.5209 10.7292 9.47919 11.9792 9.16669C15.1042 8.33335 19.8958 7.29169 25 7.29169ZM25 4.16669C19.5833 4.16669 14.4792 5.20835 11.1458 6.14585C8.75 6.77085 6.875 8.95835 6.66667 11.4584C6.45833 13.2292 6.25 15.5209 6.25 18.0209C6.25 39.375 25 45.8334 25 45.8334C25 45.8334 43.75 39.375 43.75 18.0209C43.75 15.4167 43.5417 13.2292 43.3333 11.4584C43.0208 8.85419 41.25 6.77085 38.75 6.14585C35.5208 5.20835 30.4167 4.16669 25 4.16669Z" fill="#4CAF50"/>
<path d="M23.9583 29.1667H26.0417V37.5H23.9583V29.1667Z" fill="#DCEDC8"/>
<path d="M25 10.4167C25 10.4167 18.75 15.625 18.75 23.9584C18.75 29.375 22.1875 32.8125 23.9583 34.375L25 31.25L26.0417 34.375C27.8125 32.8125 31.25 29.375 31.25 23.9584C31.25 15.625 25 10.4167 25 10.4167Z" fill="#4CAF50"/>
<path d="M25 10.4167C25 10.4167 18.75 15.625 18.75 23.9584C18.75 29.375 22.1875 32.8125 23.9583 34.375L25 31.25V10.4167Z" fill="#81C784"/>
</svg>
