<svg width="60" height="50" viewBox="0 0 60 50" fill="none" xmlns="http://www.w3.org/2000/svg">
<path d="M14.1574 13.0358H25.474V14.2778H15.1948V23.6252H24.8611V24.8672H15.1948V35.1298H25.5919V36.3717H14.1574V13.0358ZM26.4879 13.0358H27.6902L33.0184 23.2984L38.4645 13.0356L45.872 0L33.7021 24.377L39.9734 36.3717H38.7238L33.0184 25.4555L27.2893 36.3717H26.0634L32.3818 24.3769L26.4878 13.0358H26.4879ZM40.4212 14.2778V13.0356H53.3175V14.2777H47.3762V36.3715H46.3389V14.2778H40.4212ZM0 13.0356H1.29668L19.1771 49.9811L11.7881 36.3715L1.08445 14.8006L1.03734 36.3718H0V13.0356ZM53.213 34.7547C53.001 34.7547 52.8421 34.5282 52.8421 34.235C52.8421 33.9421 53.001 33.7152 53.213 33.7152C53.4274 33.7152 53.5839 33.9419 53.5839 34.235C53.5839 34.528 53.4274 34.7547 53.213 34.7547ZM54.2323 33.3874H54.7874C54.7949 33.8024 55.0144 34.0816 55.3373 34.0816C55.6982 34.0816 55.9025 33.7816 55.9025 33.2199V29.6617H56.4677V33.2233C56.4677 34.235 56.0439 34.8176 55.3424 34.8176C54.6838 34.8176 54.2323 34.2524 54.2323 33.3872V33.3874ZM57.207 33.3421H57.7671C57.815 33.8199 58.1531 34.1233 58.6402 34.1233C59.0943 34.1233 59.4273 33.7989 59.4273 33.3524C59.4273 32.9688 59.2153 32.7385 58.7334 32.5816L58.2641 32.4246C57.6055 32.2117 57.3054 31.7722 57.3054 31.0327C57.3054 30.1362 57.8352 29.5396 58.63 29.5396C59.3692 29.5396 59.9092 30.1361 59.942 30.9838H59.3919C59.3389 30.5199 59.0462 30.2303 58.6223 30.2303C58.1759 30.2303 57.8782 30.5269 57.8782 30.9803C57.8782 31.3395 58.0698 31.5455 58.5442 31.6989L58.9453 31.835C59.6922 32.0757 60 32.4943 60 33.2513C60 34.2141 59.4601 34.8176 58.5973 34.8176C57.7898 34.8176 57.2473 34.2419 57.207 33.3419V33.3421Z" fill="black"/>
</svg>
