<svg width="67" height="41" viewBox="0 0 67 41" fill="none" xmlns="http://www.w3.org/2000/svg">
<g clip-path="url(#clip0)">
<path d="M33.1792 40.4402C32.9536 40.4402 32.743 40.3813 32.5473 40.2783L30.5461 39.1152C30.2451 38.9532 30.3956 38.8943 30.486 38.8649C30.8922 38.7324 30.9674 38.7029 31.3887 38.4674C31.4339 38.4379 31.4942 38.4527 31.5392 38.4821L33.074 39.3802C33.1342 39.4096 33.2094 39.4096 33.2545 39.3802L39.2583 35.9792C39.3184 35.9497 39.3486 35.8907 39.3486 35.8172V29.03C39.3486 28.9562 39.3184 28.8975 39.2583 28.8679L33.2545 25.4817C33.1943 25.4521 33.1191 25.4521 33.074 25.4817L27.0703 28.8679C27.0101 28.8974 26.9799 28.971 26.9799 29.0299V35.8171C26.9799 35.8761 27.0101 35.9496 27.0703 35.9792L28.7104 36.9067C29.5982 37.3483 30.1549 36.833 30.1549 36.3178V29.6188C30.1549 29.5305 30.2301 29.4421 30.3355 29.4421H31.1028C31.1932 29.4421 31.2834 29.5157 31.2834 29.6188V36.3178C31.2834 37.4808 30.6363 38.1581 29.5078 38.1581C29.1618 38.1581 28.891 38.1581 28.1235 37.79L26.5436 36.9067C26.1524 36.6859 25.9117 36.2736 25.9117 35.8319V29.0446C25.9117 28.603 26.1524 28.1906 26.5436 27.9699L32.5473 24.5688C32.9235 24.3627 33.4352 24.3627 33.8113 24.5688L39.815 27.9699C40.2062 28.1906 40.447 28.603 40.447 29.0446V35.8319C40.447 36.2736 40.2062 36.6859 39.815 36.9067L33.8113 40.3077C33.6156 40.3961 33.39 40.4402 33.1794 40.4402H33.1792ZM35.03 35.773C32.3969 35.773 31.8552 34.5952 31.8552 33.5941C31.8552 33.5056 31.9304 33.4174 32.0358 33.4174H32.8182C32.9084 33.4174 32.9837 33.4762 32.9837 33.5646C33.1041 34.3449 33.4502 34.7277 35.0451 34.7277C36.309 34.7277 36.8509 34.4479 36.8509 33.7854C36.8509 33.4026 36.7003 33.123 34.7292 32.9315C33.089 32.7695 32.0658 32.4162 32.0658 31.1353C32.0658 29.9427 33.0891 29.236 34.8044 29.236C36.7303 29.236 37.6784 29.8839 37.7988 31.2971C37.7988 31.3414 37.7837 31.3855 37.7536 31.4297C37.7234 31.4592 37.6784 31.4886 37.6332 31.4886H36.8508C36.7755 31.4886 36.7003 31.4297 36.6853 31.3561C36.5047 30.5464 36.0382 30.2813 34.8044 30.2813C33.4201 30.2813 33.2545 30.7525 33.2545 31.1058C33.2545 31.5328 33.4502 31.6653 35.3159 31.9008C37.1667 32.1365 38.0395 32.4751 38.0395 33.7412C38.0244 35.0369 36.9411 35.773 35.03 35.773Z" fill="#539E43"/>
<path d="M14.5509 13.8947C14.5509 13.6297 14.4004 13.3793 14.1597 13.2468L7.77977 9.65443C7.67431 9.59545 7.55402 9.56602 7.43372 9.55124H7.37344C7.25315 9.55124 7.13272 9.59545 7.02739 9.65443L0.647511 13.2468C0.406657 13.3793 0.256287 13.6296 0.256287 13.8947L0.271389 23.5529C0.271389 23.6854 0.346639 23.8179 0.466936 23.8768C0.587363 23.9505 0.737733 23.9505 0.843188 23.8768L4.635 21.7567C4.87573 21.6242 5.02623 21.3739 5.02623 21.1089V16.5889C5.02623 16.324 5.1766 16.0737 5.41745 15.9412L7.02739 15.0283C7.14782 14.9547 7.28322 14.9251 7.41862 14.9251C7.55402 14.9251 7.68942 14.9547 7.79487 15.0283L9.40481 15.9412C9.64567 16.0737 9.79604 16.3239 9.79604 16.5889V21.1089C9.79604 21.3739 9.94654 21.6242 10.1873 21.7567L13.9791 23.8768C14.0995 23.9505 14.2499 23.9505 14.3703 23.8768C14.4907 23.8179 14.566 23.6854 14.566 23.5529L14.5509 13.8947ZM45.2165 0.599778C45.0962 0.540797 44.9457 0.540797 44.8402 0.599778C44.7199 0.673408 44.6447 0.791115 44.6447 0.923599V10.4937C44.6447 10.5819 44.5996 10.6702 44.5093 10.7292C44.4191 10.7733 44.3287 10.7733 44.2385 10.7292L42.6435 9.83112C42.5266 9.76597 42.3943 9.73171 42.2598 9.73171C42.1252 9.73171 41.993 9.76597 41.876 9.83112L35.4961 13.4382C35.2554 13.5707 35.1049 13.8211 35.1049 14.086V21.2855C35.1049 21.5505 35.2554 21.8009 35.4961 21.9334L41.876 25.5405C41.993 25.6057 42.1252 25.6399 42.2598 25.6399C42.3943 25.6399 42.5266 25.6057 42.6435 25.5405L49.0234 21.9334C49.2641 21.8009 49.4146 21.5506 49.4146 21.2855V3.33825C49.4146 3.0585 49.2641 2.80831 49.0234 2.6757L45.2166 0.599778H45.2165ZM44.6297 18.9152C44.6297 18.9888 44.5996 19.0477 44.5393 19.0771L42.3576 20.3138C42.3271 20.3283 42.2937 20.3359 42.2598 20.3359C42.2259 20.3359 42.1924 20.3283 42.1619 20.3138L39.9802 19.0771C39.9199 19.0477 39.8898 18.974 39.8898 18.9152V16.4417C39.8898 16.3681 39.9199 16.3092 39.9802 16.2798L42.1619 15.043C42.1924 15.0284 42.2259 15.0209 42.2598 15.0209C42.2937 15.0209 42.3271 15.0284 42.3576 15.043L44.5393 16.2798C44.5996 16.3091 44.6297 16.3828 44.6297 16.4417V18.9152ZM66.4476 16.3828C66.6885 16.2504 66.8239 16 66.8239 15.7349V13.983C66.8239 13.718 66.6734 13.4677 66.4476 13.3352L60.1129 9.74284C59.996 9.67771 59.8638 9.64347 59.7293 9.64347C59.5947 9.64347 59.4625 9.67771 59.3456 9.74284L52.9657 13.3498C52.7248 13.4823 52.5745 13.7326 52.5745 13.9977V21.1972C52.5745 21.4622 52.7248 21.7125 52.9657 21.845L59.3004 25.3785C59.5413 25.511 59.827 25.511 60.0528 25.3785L63.8896 23.2881C64.0101 23.2291 64.0853 23.0966 64.0853 22.9641C64.0853 22.8316 64.0101 22.6991 63.8896 22.6402L57.4797 19.033C57.3594 18.9595 57.2841 18.8417 57.2841 18.7092V16.4566C57.2841 16.3241 57.3594 16.1916 57.4797 16.1326L59.481 15.0137C59.5396 14.9776 59.6074 14.9585 59.6766 14.9585C59.7458 14.9585 59.8136 14.9776 59.8722 15.0137L61.8734 16.1326C61.9938 16.2063 62.0691 16.324 62.0691 16.4566V18.2233C62.0691 18.3558 62.1443 18.4883 62.2646 18.5472C62.385 18.6208 62.5354 18.6208 62.6558 18.5472L66.4476 16.3828Z" fill="white"/>
<path d="M59.6319 16.0442C59.6543 16.0298 59.6804 16.0222 59.7071 16.0222C59.7339 16.0222 59.76 16.0298 59.7823 16.0442L61.0012 16.7362C61.0464 16.7655 61.0764 16.8097 61.0764 16.8687V18.2526C61.0764 18.3115 61.0464 18.3557 61.0012 18.3851L59.7823 19.0771C59.76 19.0915 59.7339 19.0991 59.7071 19.0991C59.6804 19.0991 59.6543 19.0915 59.6319 19.0771L58.4131 18.3851C58.3679 18.3557 58.3378 18.3115 58.3378 18.2526V16.8687C58.3378 16.8097 58.3679 16.7655 58.4131 16.7362L59.6319 16.0442Z" fill="#539E43"/>
<mask id="mask0" mask-type="alpha" maskUnits="userSpaceOnUse" x="17" y="9" width="15" height="17">
<path d="M25.2196 9.77228C25.1027 9.70716 24.9705 9.67291 24.836 9.67291C24.7014 9.67291 24.5692 9.70716 24.4523 9.77228L18.1176 13.3497C17.8767 13.4822 17.7413 13.7325 17.7413 13.9975V21.1677C17.7413 21.4326 17.8918 21.683 18.1176 21.8155L24.4523 25.3932C24.5692 25.4583 24.7014 25.4925 24.836 25.4925C24.9705 25.4925 25.1027 25.4583 25.2196 25.3932L31.5545 21.8155C31.7952 21.683 31.9307 21.4326 31.9307 21.1677V13.9976C31.9307 13.7327 31.7801 13.4823 31.5545 13.3499L25.2196 9.77228Z" fill="white"/>
</mask>
<g mask="url(#mask0)">
<path d="M25.2196 9.77228C25.1027 9.70716 24.9705 9.67291 24.836 9.67291C24.7014 9.67291 24.5692 9.70716 24.4523 9.77228L18.1176 13.3497C17.8767 13.4822 17.7413 13.7325 17.7413 13.9975V21.1677C17.7413 21.4326 17.8918 21.683 18.1176 21.8155L24.4523 25.3932C24.5692 25.4583 24.7014 25.4925 24.836 25.4925C24.9705 25.4925 25.1027 25.4583 25.2196 25.3932L31.5545 21.8155C31.7952 21.683 31.9307 21.4326 31.9307 21.1677V13.9976C31.9307 13.7327 31.7801 13.4823 31.5545 13.3499L25.2196 9.77228Z" fill="url(#paint0_linear)"/>
<path d="M31.5694 13.3499L25.2046 9.7723C25.1421 9.7414 25.0765 9.71673 25.0089 9.69867L17.8767 21.6538C17.9358 21.7244 18.0071 21.7842 18.0875 21.8305L24.4523 25.4082C24.6328 25.5113 24.8435 25.5407 25.039 25.4817L31.735 13.4973C31.6898 13.4384 31.6295 13.3941 31.5694 13.35V13.3499Z" fill="url(#paint1_linear)"/>
<path fill-rule="evenodd" clip-rule="evenodd" d="M31.5846 21.8156C31.7651 21.7125 31.9005 21.5358 31.9608 21.3445L24.9788 9.68387C24.7983 9.65444 24.6026 9.66909 24.4373 9.77215L18.1176 13.3352L24.9337 25.4964C25.0328 25.4805 25.1291 25.4507 25.2196 25.4081L31.5844 21.8157L31.5846 21.8156Z" fill="url(#paint2_linear)"/>
<path fill-rule="evenodd" clip-rule="evenodd" d="M31.5845 21.8156L25.2347 25.3933C25.1451 25.4381 25.0485 25.4679 24.9489 25.4816L25.0693 25.7025L32.1111 21.7127V21.6243L31.9306 21.3298C31.9005 21.5359 31.7651 21.7126 31.5845 21.8156Z" fill="url(#paint3_linear)"/>
<path fill-rule="evenodd" clip-rule="evenodd" d="M31.5845 21.8156L25.2347 25.3933C25.1451 25.4381 25.0485 25.4679 24.9489 25.4816L25.0693 25.7025L32.1111 21.7127V21.6243L31.9306 21.3298C31.9005 21.5359 31.7651 21.7126 31.5845 21.8156Z" fill="url(#paint4_linear)"/>
</g>
</g>
<defs>
<linearGradient id="paint0_linear" x1="27.4168" y1="12.4393" x2="20.6864" y2="23.2473" gradientUnits="userSpaceOnUse">
<stop stop-color="#41873F"/>
<stop offset="0.3288" stop-color="#418B3D"/>
<stop offset="0.6352" stop-color="#419637"/>
<stop offset="0.9319" stop-color="#3FA92D"/>
<stop offset="1" stop-color="#3FAE2A"/>
</linearGradient>
<linearGradient id="paint1_linear" x1="23.8742" y1="18.4226" x2="41.0892" y2="8.8639" gradientUnits="userSpaceOnUse">
<stop offset="0.1376" stop-color="#41873F"/>
<stop offset="0.4032" stop-color="#54A044"/>
<stop offset="0.7136" stop-color="#66B848"/>
<stop offset="0.9081" stop-color="#6CC04A"/>
</linearGradient>
<linearGradient id="paint2_linear" x1="17.51" y1="17.5829" x2="32.1683" y2="17.5829" gradientUnits="userSpaceOnUse">
<stop offset="0.09192" stop-color="#6CC04A"/>
<stop offset="0.2864" stop-color="#66B848"/>
<stop offset="0.5968" stop-color="#54A044"/>
<stop offset="0.8624" stop-color="#41873F"/>
</linearGradient>
<linearGradient id="paint3_linear" x1="17.51" y1="23.5282" x2="32.1682" y2="23.5282" gradientUnits="userSpaceOnUse">
<stop offset="0.09192" stop-color="#6CC04A"/>
<stop offset="0.2864" stop-color="#66B848"/>
<stop offset="0.5968" stop-color="#54A044"/>
<stop offset="0.8624" stop-color="#41873F"/>
</linearGradient>
<linearGradient id="paint4_linear" x1="34.3037" y1="12.1003" x2="30.743" y2="31.1686" gradientUnits="userSpaceOnUse">
<stop stop-color="#41873F"/>
<stop offset="0.3288" stop-color="#418B3D"/>
<stop offset="0.6352" stop-color="#419637"/>
<stop offset="0.9319" stop-color="#3FA92D"/>
<stop offset="1" stop-color="#3FAE2A"/>
</linearGradient>
<clipPath id="clip0">
<rect width="66.6667" height="40" fill="white" transform="translate(0.222229 0.555542)"/>
</clipPath>
</defs>
</svg>
