<svg width="40" height="50" viewBox="0 0 40 50" fill="none" xmlns="http://www.w3.org/2000/svg">
<path d="M19.7396 0C14.5253 0.0674636 9.54359 2.16882 5.85622 5.85619C2.16885 9.54356 0.0674942 14.5253 3.05176e-05 19.7396H10C10.0709 17.1789 11.1198 14.7426 12.9312 12.9312C14.7426 11.1198 17.1789 10.0709 19.7396 10V0ZM20.2605 0V10C22.8211 10.0709 25.2575 11.1198 27.0688 12.9312C28.8802 14.7426 29.9291 17.1789 30 19.7396H40C39.9326 14.5253 37.8312 9.54356 34.1438 5.85619C30.4565 2.16882 25.4747 0.0674636 20.2605 0V0ZM3.05176e-05 20.2604V50H20V40H10V20.2583L3.05176e-05 20.2604ZM20 39.9979C25.2594 39.9989 30.3074 37.928 34.0508 34.2338C37.7941 30.5395 39.9315 25.5193 40 20.2604H30C29.9285 22.866 28.8438 25.341 26.9766 27.1596C25.1093 28.9782 22.6066 29.9972 20 30V39.9979Z" fill="black"/>
</svg>
