<svg width="50" height="50" viewBox="0 0 50 50" fill="none" xmlns="http://www.w3.org/2000/svg">
<path d="M41.11 16.1894C40.5778 15.9845 40.0412 15.7946 39.5006 15.6199C39.5914 15.2033 39.675 14.7916 39.7492 14.3872C40.9676 7.74667 40.1711 2.39689 37.4506 0.635488C34.8422 -1.05311 30.5764 0.707637 26.2682 4.91751C25.8436 5.33315 25.4284 5.76077 25.023 6.19996C24.7517 5.90791 24.4755 5.62153 24.1947 5.34097C19.6795 0.839655 15.1537 -1.05749 12.4361 0.708953C9.83008 2.40281 9.0584 7.43198 10.1553 13.7254C10.2644 14.3487 10.3876 14.9688 10.5248 15.5851C9.88418 15.7894 9.26602 16.007 8.67441 16.2386C3.38066 18.3109 0 21.5585 0 24.9272C0 28.4063 3.6293 31.896 9.14297 34.012C9.58997 34.1829 10.0407 34.3412 10.4947 34.4868C10.3473 35.1506 10.2164 35.8188 10.1021 36.4908C9.05645 42.675 9.87305 47.5853 12.4721 49.2684C15.1564 51.0065 19.6619 49.2201 24.0488 44.9142C24.4046 44.5642 24.7525 44.2042 25.0922 43.8346C25.5312 44.3102 25.9819 44.7719 26.4438 45.2193C30.6934 49.325 34.8902 50.9829 37.4867 49.2951C40.1686 47.5519 41.0402 42.2769 39.9086 35.8592C39.8194 35.3564 39.7195 34.8561 39.6088 34.3587C39.9252 34.2535 40.2357 34.1451 40.5385 34.0324C46.2705 31.9002 50 28.4528 50 24.9272C50 21.5462 46.5102 18.2767 41.11 16.1894ZM39.8668 31.7561C39.5934 31.8576 39.3129 31.9557 39.027 32.0511C38.3941 29.8017 37.5402 27.4101 36.4951 24.9388C37.4924 22.5265 38.3135 20.1653 38.9285 17.9307C39.44 18.0969 39.9363 18.2721 40.4148 18.457C45.0418 20.2456 47.8641 22.8897 47.8641 24.9272C47.8641 27.0973 44.816 29.9147 39.8668 31.7561ZM37.8133 36.325C38.3137 39.1627 38.385 41.7285 38.0535 43.7344C37.7559 45.5368 37.157 46.7383 36.4164 47.2197C34.8408 48.2438 31.4711 46.9127 27.8369 43.4013C27.4073 42.9854 26.9881 42.5561 26.5797 42.114C27.9887 40.384 29.3967 38.3728 30.7709 36.139C33.1881 35.8982 35.4717 35.5044 37.5426 34.9669C37.6445 35.4289 37.7352 35.882 37.8133 36.325ZM17.0461 47.0427C15.5066 47.653 14.2805 47.6706 13.5393 47.1908C11.9621 46.1695 11.3064 42.2267 12.2008 36.9381C12.3071 36.3132 12.4288 35.6917 12.5658 35.0743C14.6139 35.5831 16.8809 35.9489 19.3037 36.1695C20.6873 38.3552 22.1359 40.3642 23.5959 42.1234C23.2856 42.4605 22.968 42.789 22.6434 43.1085C20.7033 45.0125 18.7594 46.3633 17.0461 47.0427ZM9.83398 31.7427C7.3959 30.807 5.38242 29.591 4.00234 28.264C2.76211 27.0717 2.13613 25.8877 2.13613 24.9272C2.13613 22.8829 4.85039 20.2754 9.37754 18.5033C9.92695 18.2883 10.502 18.0855 11.0986 17.8951C11.7244 20.1802 12.5451 22.5695 13.5355 24.9855C12.5322 27.4372 11.6998 29.8647 11.068 32.1767C10.6535 32.0434 10.2421 31.8987 9.83398 31.7427ZM12.2516 13.2647C11.3119 7.87277 11.9359 3.80544 13.5064 2.78461C15.1791 1.69733 18.8779 3.24755 22.7766 7.13439C23.0308 7.38842 23.2809 7.6476 23.5268 7.9118C22.074 9.66334 20.6387 11.6574 19.2674 13.8302C16.9158 14.075 14.6648 14.4679 12.5953 14.9945C12.4678 14.4213 12.3532 13.8446 12.2516 13.2649V13.2647ZM33.8193 19.2445C33.3305 18.2964 32.8236 17.3603 32.2988 16.4368C33.8941 16.6633 35.4227 16.964 36.858 17.3315C36.4271 18.8824 35.89 20.5037 35.2578 22.166C34.7957 21.1815 34.3161 20.2075 33.8193 19.2445ZM25.024 9.62584C26.0092 10.8243 26.9959 12.1622 27.9664 13.614C25.9977 13.5096 24.0256 13.5092 22.0568 13.6127C23.0283 12.1743 24.0234 10.8381 25.024 9.62584ZM16.1723 19.2609C15.6817 20.2162 15.2111 21.1841 14.7607 22.164C14.1389 20.5076 13.6066 18.8789 13.1721 17.3061C14.5986 16.9478 16.1199 16.6548 17.7051 16.4324C17.1745 17.3616 16.6634 18.3046 16.1723 19.2607V19.2609ZM17.7506 33.5925C16.1129 33.3872 14.5688 33.1094 13.1426 32.7607C13.584 31.1598 14.1279 29.4965 14.7633 27.8046C15.2154 28.7852 15.688 29.7537 16.1807 30.7094C16.6873 31.6919 17.2119 32.6541 17.7506 33.5925ZM25.083 40.3973C24.0705 39.171 23.0607 37.8142 22.0746 36.355C23.032 36.3971 24.008 36.4186 25 36.4186C26.0191 36.4186 27.0266 36.3929 28.0182 36.3434C27.0445 37.8289 26.0615 39.1877 25.083 40.3973ZM35.2779 27.7182C35.9463 29.4287 36.5096 31.0833 36.9568 32.6568C35.5072 33.0283 33.942 33.3274 32.2928 33.5495C32.8212 32.6089 33.333 31.6565 33.8277 30.6929C34.3307 29.7136 34.8143 28.7217 35.2779 27.7182ZM31.9775 29.4947C31.2202 30.972 30.4202 32.4212 29.5789 33.8401C28.055 33.9613 26.5277 34.0215 25 34.0206C23.4439 34.0206 21.9305 33.9662 20.473 33.8601C19.6098 32.4444 18.7946 30.9927 18.0291 29.5079H18.0293C17.2674 28.0309 16.5558 26.522 15.8959 24.9844C16.5541 23.4464 17.2636 21.9368 18.0229 20.4587L18.0227 20.459C18.7816 18.9805 19.5904 17.5349 20.4471 16.1254C21.934 15.9991 23.4588 15.9333 24.9998 15.9333H25C26.548 15.9333 28.0748 15.9997 29.5613 16.1269C30.4094 17.5344 31.2129 18.975 31.9705 20.446C32.7323 21.9208 33.4512 23.4231 34.126 24.9504C33.4581 26.4933 32.7415 28.0091 31.9775 29.4947ZM36.3838 2.71312C38.058 3.79733 38.7092 8.16948 37.6572 13.903C37.59 14.2688 37.5146 14.6414 37.4326 15.0193C35.358 14.4815 33.1055 14.0818 30.7471 13.8333C29.3732 11.6366 27.9496 9.63944 26.5205 7.91049C26.895 7.50512 27.2785 7.11026 27.6705 6.72628C31.3619 3.11948 34.8119 1.69536 36.3838 2.71312ZM25 19.914C27.4658 19.914 29.4648 22.1585 29.4648 24.9272C29.4648 27.6958 27.4658 29.9403 25 29.9403C22.5342 29.9403 20.5352 27.6958 20.5352 24.9272C20.5352 22.1585 22.5342 19.914 25 19.914Z" fill="#00D8FF"/>
</svg>
