<svg width="50" height="50" viewBox="0 0 50 50" fill="none" xmlns="http://www.w3.org/2000/svg">
<path d="M34.6447 34.7814C36.4898 34.5809 37.8896 32.9121 37.826 30.9092C37.7625 28.9066 36.1717 27.3043 34.2629 27.3043H34.1357C32.1631 27.3711 30.6361 29.1068 30.6998 31.1762C30.7635 32.1777 31.1451 33.0455 31.7178 33.6463C29.5545 38.1193 26.2459 41.3904 21.283 44.1275C17.9107 45.9967 14.4113 46.6643 10.9119 46.1971C8.04863 45.7965 5.82168 44.4615 4.42168 42.2582C2.38574 38.9871 2.19492 35.4488 3.91289 31.9107C5.12187 29.3738 7.03047 27.5045 8.23945 26.5699C7.98496 25.702 7.60312 24.2334 7.4123 23.1654C-1.81367 30.175 -0.859182 39.6547 1.94043 44.1275C4.04004 47.4656 8.30312 49.535 13.0115 49.535C14.284 49.535 15.5564 49.4014 16.8291 49.0678C24.9734 47.3988 31.1453 42.325 34.6447 34.7814ZM45.8432 26.5033C41.0074 20.5617 33.8812 17.2906 25.7369 17.2906H24.7189C24.1463 16.0889 22.9373 15.2877 21.6012 15.2877H21.4738C19.5016 15.3545 17.9746 17.0902 18.0381 19.1598C18.1018 21.1625 19.6924 22.7648 21.6012 22.7648H21.7283C23.1281 22.698 24.3371 21.7633 24.8461 20.4949H25.9914C30.8271 20.4949 35.4082 21.9635 39.5441 24.8342C42.7254 27.0373 45.016 29.908 46.2885 33.3793C47.3701 36.1832 47.3064 38.9203 46.1611 41.257C44.3797 44.7951 41.3892 46.7311 37.4443 46.7311C34.8992 46.7311 32.4814 45.9299 31.2088 45.3291C30.509 45.9967 29.2363 47.0648 28.3455 47.7326C31.0816 49.0676 33.8812 49.802 36.5535 49.802C42.6617 49.802 47.1793 46.2637 48.8973 42.7256C50.7424 38.8535 50.615 32.1777 45.8432 26.5033ZM13.5205 35.916C13.5842 37.9189 15.1748 39.5209 17.0836 39.5209H17.2109C19.1834 39.4543 20.7103 37.7184 20.6467 35.649C20.5832 33.6461 18.9924 32.0441 17.0836 32.0441H16.9564C16.8291 32.0441 16.6381 32.0441 16.5111 32.1107C13.9023 27.5711 12.8207 22.6311 13.2025 17.2904C13.4568 13.2848 14.7295 9.81332 16.9564 6.94262C18.8016 4.47254 22.3646 3.2709 24.7826 3.2043C31.5269 3.0707 34.39 11.8828 34.581 15.4211C35.4082 15.6213 36.808 16.0887 37.7625 16.4225C36.9988 5.60779 30.6361 0 24.5281 0C18.8016 0 13.5205 4.33934 11.4207 10.7482C8.49394 19.2932 10.4027 27.5045 13.9658 33.9801C13.6478 34.4473 13.4568 35.1818 13.5205 35.9162V35.916Z" fill="#764ABC"/>
</svg>
