<svg width="60" height="61" viewBox="0 0 60 61" fill="none" xmlns="http://www.w3.org/2000/svg">
<path d="M59.275 1.72467C58.9376 1.38885 58.5113 1.15634 58.0463 1.05448C57.5813 0.952625 57.0969 0.985647 56.65 1.14967L1.65 21.1497C1.17567 21.3296 0.767302 21.6495 0.47913 22.0671C0.190957 22.4846 0.0366211 22.9799 0.0366211 23.4872C0.0366211 23.9945 0.190957 24.4898 0.47913 24.9073C0.767302 25.3248 1.17567 25.6448 1.65 25.8247L25.65 35.4247L35.25 59.4247C35.4304 59.8782 35.7395 60.2689 36.1394 60.5488C36.5392 60.8287 37.0122 60.9854 37.5 60.9997C38.0052 60.9893 38.4954 60.8261 38.906 60.5315C39.3166 60.237 39.6283 59.8249 39.8 59.3497L59.8 4.34967C59.9703 3.90736 60.0114 3.42574 59.9185 2.96098C59.8255 2.49621 59.6023 2.06744 59.275 1.72467V1.72467ZM37.5 51.4997L30.525 33.9997L42.5 22.0247L38.975 18.4997L26.9 30.5747L9.5 23.4997L53.325 7.67467L37.5 51.4997Z" fill="white"/>
</svg>
