<svg width="50" height="50" viewBox="0 0 50 50" fill="none" xmlns="http://www.w3.org/2000/svg">
<path d="M18.8372 1.44188C25.1396 -0.174402 32.1047 0.767458 37.6628 4.19769C44.6628 8.38374 49.2326 16.3023 49.3489 24.4535C49.6047 32.6861 45.314 40.8489 38.4186 45.3256C30.7442 50.4884 20.1279 50.6861 12.2907 45.7791C4.30237 41.0117 -0.360425 31.3954 0.837249 22.1628C1.80237 12.407 9.33725 3.80234 18.8372 1.44188Z" fill="#010101"/>
<path d="M17.8721 5.43022C29.7791 0.662781 44.3838 9.46511 45.6163 22.2325C47.5349 33.7209 38 45.3953 26.3605 45.7325C15.2907 46.8372 4.59306 37.4535 4.27911 26.3372C3.45352 17.3372 9.38376 8.40697 17.8721 5.43022Z" fill="white"/>
<path d="M19.0698 23.7674C24.407 19.407 29.6279 14.8953 35.0814 10.6628C32.2209 15.0581 29.2791 19.3953 26.4186 23.7907C23.9651 23.8023 21.5116 23.8023 19.0698 23.7674Z" fill="#010101"/>
<path d="M23.5815 26.1977C26.0466 26.1977 28.5001 26.1977 30.9536 26.2326C25.5815 30.5698 20.3838 35.1163 14.9187 39.3372C17.7792 34.9419 20.721 30.593 23.5815 26.1977Z" fill="#010101"/>
</svg>
