<svg width="66" height="65" viewBox="0 0 66 65" fill="none" xmlns="http://www.w3.org/2000/svg">
<path d="M65.1429 7.68537C62.7774 8.97016 60.2356 9.83848 57.5677 10.2291C60.2911 8.2298 62.3821 5.0638 63.3668 1.29155C60.7779 3.17332 57.9454 4.49915 54.9918 5.21175C52.5858 2.07221 49.1584 0.110107 45.3647 0.110107C38.0809 0.110107 32.1754 7.34333 32.1754 16.2646C32.1754 17.5309 32.2921 18.7637 32.5169 19.9464C21.5557 19.2725 11.8375 12.8411 5.33232 3.06725C4.19727 5.4532 3.54688 8.22856 3.54688 11.1888C3.54688 16.7936 5.87548 21.7381 9.41421 24.6353C7.31977 24.5549 5.27142 23.862 3.44016 22.6144C3.4394 22.6821 3.4394 22.7498 3.4394 22.8177C3.4394 30.6449 7.98561 37.1744 14.0189 38.6585C12.0768 39.3055 10.0396 39.4001 8.06295 38.9353C9.74116 45.3534 14.6121 50.0238 20.3832 50.1545C15.8694 54.4872 10.1824 57.07 4.00341 57.07C2.93868 57.07 1.88901 56.9934 0.857178 56.8443C6.69387 61.4279 13.6264 64.1024 21.0745 64.1024C45.3341 64.1024 58.5998 39.4859 58.5998 18.1381C58.5998 17.4374 58.5873 16.7407 58.5616 16.048C61.1437 13.7617 63.3723 10.9298 65.1429 7.68537" fill="#55ACEE"/>
</svg>
