<svg width="50" height="50" viewBox="0 0 50 50" fill="none" xmlns="http://www.w3.org/2000/svg">
<path d="M0 25V40C0 45.5228 4.47715 50 10 50H40C45.5228 50 50 45.5228 50 40V10C50 4.47715 45.5228 0 40 0H10C4.47715 0 0 4.47715 0 10V25Z" fill="#007ACC"/>
<path d="M11.0568 25.166L11.041 27.2135H17.5488V45.7056H22.1523V27.2135H28.6602V25.2056C28.6602 24.0943 28.6363 23.1658 28.6047 23.142C28.5809 23.1103 24.6205 23.0943 19.8189 23.1023L11.0809 23.1262L11.057 25.1658L11.0568 25.166Z" fill="white"/>
<path d="M40.3451 23.0679C41.6148 23.3855 42.5832 23.9488 43.472 24.8695C43.9324 25.3617 44.6148 26.2586 44.6705 26.4728C44.6861 26.5363 42.5117 27.9967 41.1943 28.814C41.1466 28.8459 40.956 28.6394 40.7418 28.3219C40.099 27.3855 39.4244 26.9806 38.3925 26.9094C36.8769 26.806 35.9005 27.5998 35.9086 28.925C35.9086 29.314 35.964 29.5441 36.1228 29.8617C36.4562 30.5521 37.0752 30.9648 39.0197 31.806C42.599 33.3459 44.1306 34.3617 45.0832 35.806C46.1466 37.4174 46.3847 39.9887 45.6625 41.9013C44.8689 43.9806 42.9007 45.3935 40.1306 45.8617C39.2736 46.0125 37.242 45.9886 36.3212 45.822C34.3134 45.4648 32.4085 44.4728 31.2339 43.1713C30.7736 42.6633 29.8767 41.3379 29.9324 41.2426C29.9562 41.2109 30.1625 41.084 30.3925 40.949C30.6148 40.822 31.4562 40.3377 32.2498 39.8775L33.6863 39.0441L33.9878 39.4887C34.4086 40.1314 35.3291 41.0125 35.8847 41.306C37.4798 42.1474 39.6705 42.0283 40.7498 41.0599C41.2101 40.6394 41.4005 40.2029 41.4005 39.5599C41.4005 38.9806 41.3291 38.7267 41.0275 38.2904C40.6388 37.7347 39.8451 37.2664 37.591 36.2904C35.0117 35.1791 33.9005 34.4887 32.8847 33.3933C32.2974 32.7586 31.7418 31.7426 31.5117 30.8933C31.3212 30.1871 31.2734 28.4172 31.4244 27.7029C31.9562 25.2107 33.8371 23.4728 36.5513 22.9568C37.4322 22.7902 39.4798 22.8537 40.3451 23.0681V23.0679Z" fill="white"/>
</svg>
