<svg width="54" height="50" viewBox="0 0 54 50" fill="none" xmlns="http://www.w3.org/2000/svg">
<g clip-path="url(#clip0_403_571)">
<path d="M17.7848 9.12167C17.7848 9.12167 15.8083 10.2629 15.8083 12.5417V23.9313C15.8083 23.9313 15.8083 26.2135 13.8319 25.0725C11.8554 23.9315 11.8554 21.6527 11.8554 21.6527V10.2631C11.8554 10.1208 11.8625 9.98229 11.8767 9.84708C12.0935 7.84229 13.8283 6.83979 13.8283 6.83979L9.87917 4.56083C9.87917 4.56083 9.87562 4.56083 9.87208 4.56437C9.75479 4.63187 7.90271 5.77312 7.90271 7.98062V19.3702C7.90271 19.3702 7.90271 21.6525 5.92604 20.5115C3.94958 19.3704 3.94958 17.0917 3.94958 17.0917V5.70208C3.94958 3.42333 5.92604 2.28229 5.92604 2.28229L1.97646 0C1.97646 0 0 1.14104 0 3.41979V14.8094C0 14.8094 0 21.6525 5.92583 25.0723C7.7425 26.121 9.00083 26.2027 9.87542 25.8152C10.7498 27.2123 12.0083 28.5846 13.8248 29.6331C19.7506 33.0529 19.7506 26.2133 19.7506 26.2133V14.8237C19.7506 12.5415 21.7273 11.404 21.7273 11.404C21.1196 10.6398 20.5794 10.1206 20.1065 9.84687C19.7033 9.61354 18.9294 9.37187 17.7848 9.12187V9.12167Z" fill="#808285"/>
<path d="M39.5087 28.5027C39.5087 21.7486 45.4345 25.0829 45.4345 25.0829L53.3334 29.6438V34.2048L45.4345 29.6438C45.4345 29.6438 45.4095 29.6294 45.3655 29.6071L45.3395 29.5944C44.9449 29.4015 43.4582 28.8061 43.4582 30.7886C43.4582 33.0671 45.4345 34.2084 45.4345 34.2084L49.3841 36.4869C49.3841 36.4869 53.3334 38.7692 53.3334 45.6088C53.3334 52.4483 47.4076 49.0283 47.4076 49.0283L39.5087 44.4675V39.9067L47.4111 44.4675C47.4111 44.4675 49.3876 45.6088 49.3876 43.3265C49.3876 41.0477 47.4111 39.9067 47.4111 39.9067L45.4345 38.7656C45.3166 38.695 39.5087 35.1894 39.5087 28.5027V28.5027ZM33.5828 18.2438C34.7639 18.3794 35.5645 18.5688 35.9849 18.8117C36.4422 19.0759 36.9578 19.6473 37.5322 20.5259C37.5322 20.5259 35.5557 21.6671 35.5557 23.9456L35.5555 35.3534C35.5503 35.7367 35.3778 42.0723 29.6297 38.7552C23.8818 35.4379 23.7091 28.8998 23.7041 28.5104L23.7039 28.4923L27.6532 30.7746V30.7821C27.6553 30.9269 27.7199 33.0917 29.6297 34.1942C31.5457 35.3004 31.6045 33.1896 31.6061 33.0594V21.6636C31.6061 19.3848 33.5828 18.2438 33.5828 18.2438V18.2438ZM23.7109 19.4096L27.6603 21.6884V26.2492L23.7109 23.9706V19.4094V19.4096Z" fill="#BCBEC0"/>
<path d="M45.4343 9.12165C43.6143 8.06957 41.9826 7.55748 40.5926 7.35144C40.2301 6.55873 39.3413 5.62728 37.5355 4.59644C31.6095 1.21227 25.6872 4.56102 25.6872 4.56102L17.7847 9.12144L21.7343 11.4002L29.633 6.83936C29.633 6.83936 31.6095 5.69811 33.5826 6.83936C35.559 7.9804 33.5826 9.12144 33.5826 9.12144L25.6836 13.6823L29.633 15.961L37.539 11.3964C37.6563 11.3292 39.5688 10.2946 41.4813 11.4002C43.4578 12.5412 41.4813 13.6787 41.4813 13.6787L33.5826 18.2398L37.532 20.5219L47.4074 14.8198C47.4074 14.8198 51.3568 12.5412 45.4345 9.12144L45.4343 9.12165Z" fill="#F16822"/>
</g>
<defs>
<clipPath id="clip0_403_571">
<rect width="53.3333" height="50" fill="white"/>
</clipPath>
</defs>
</svg>
